<?xml version="1.0" encoding="UTF-8" standalone="no"?>
<svg xmlns="http://www.w3.org/2000/svg" version="1.1" viewBox="0 0 184 122">
   <polyline fill="none" points="107,45 117,45" stroke="rgb(0, 0, 0)" stroke-linecap="square" stroke-width="3.0"/>
   <polyline fill="none" points="107,105 117,105" stroke="rgb(0, 0, 0)" stroke-linecap="square" stroke-width="3.0"/>
   <polyline fill="none" points="107,15 117,15" stroke="rgb(0, 0, 0)" stroke-linecap="square" stroke-width="3.0"/>
   <polyline fill="none" points="107,75 117,75" stroke="rgb(0, 0, 0)" stroke-linecap="square" stroke-width="3.0"/>
   <polyline fill="none" points="121,75 118,75" stroke="rgb(0, 0, 0)" stroke-linecap="square" stroke-width="3.0"/>
   <polygon fill="none" points="147,66 157,75 147,84 123,84 123,66" stroke="rgb(0, 0, 0)" stroke-linecap="square" stroke-width="2.0"/>
   <text fill="rgb(0, 0, 0)" font-family="Monospaced" font-size="12" x="123.0" y="81.0">x1</text>
   <text fill="rgb(0, 0, 0)" font-family="Monospaced" font-size="16" font-weight="bold" x="159.0" y="83.0">s1</text>
   <ellipse cx="117.0" cy="75.0" fill="rgb(0, 0, 0)" rx="2.0" ry="2.0" stroke="none" stroke-width="2.0"/>
   <polygon fill="none" points="97,45 78,38 78,52" stroke="rgb(0, 0, 0)" stroke-linecap="square" stroke-width="2.0"/>
   <ellipse cx="102.0" cy="45.0" fill="none" rx="4.5" ry="4.5" stroke="rgb(0, 0, 0)" stroke-width="2.0"/>
   <ellipse cx="107.0" cy="45.0" fill="rgb(0, 0, 0)" rx="2.0" ry="2.0" stroke="none" stroke-width="2.0"/>
   <ellipse cx="77.0" cy="45.0" fill="rgb(0, 0, 0)" rx="2.0" ry="2.0" stroke="none" stroke-width="2.0"/>
   <polyline fill="none" points="62,15 67,15 77,15" stroke="rgb(0, 0, 0)" stroke-linecap="square" stroke-width="3.0"/>
   <polygon fill="none" points="52,24 62,15 52,6 28,6 28,24" stroke="rgb(0, 0, 0)" stroke-linecap="square" stroke-width="2.0"/>
   <text fill="rgb(0, 0, 0)" font-family="Monospaced" font-size="12" x="33.0" y="21.0">x1</text>
   <text fill="rgb(0, 0, 0)" font-family="Monospaced" font-size="16" font-weight="bold" x="5.0" y="23.0">e3</text>
   <ellipse cx="67.0" cy="15.0" fill="rgb(0, 0, 0)" rx="2.0" ry="2.0" stroke="none" stroke-width="2.0"/>
   <polyline fill="none" points="121,105 118,105" stroke="rgb(0, 0, 0)" stroke-linecap="square" stroke-width="3.0"/>
   <polygon fill="none" points="147,96 157,105 147,114 123,114 123,96" stroke="rgb(0, 0, 0)" stroke-linecap="square" stroke-width="2.0"/>
   <text fill="rgb(0, 0, 0)" font-family="Monospaced" font-size="12" x="123.0" y="111.0">x1</text>
   <text fill="rgb(0, 0, 0)" font-family="Monospaced" font-size="16" font-weight="bold" x="159.0" y="113.0">s0</text>
   <ellipse cx="117.0" cy="105.0" fill="rgb(0, 0, 0)" rx="2.0" ry="2.0" stroke="none" stroke-width="2.0"/>
   <polygon fill="none" points="97,105 78,98 78,112" stroke="rgb(0, 0, 0)" stroke-linecap="square" stroke-width="2.0"/>
   <ellipse cx="102.0" cy="105.0" fill="none" rx="4.5" ry="4.5" stroke="rgb(0, 0, 0)" stroke-width="2.0"/>
   <ellipse cx="107.0" cy="105.0" fill="rgb(0, 0, 0)" rx="2.0" ry="2.0" stroke="none" stroke-width="2.0"/>
   <ellipse cx="77.0" cy="105.0" fill="rgb(0, 0, 0)" rx="2.0" ry="2.0" stroke="none" stroke-width="2.0"/>
   <polyline fill="none" points="121,15 118,15" stroke="rgb(0, 0, 0)" stroke-linecap="square" stroke-width="3.0"/>
   <polygon fill="none" points="147,6 157,15 147,24 123,24 123,6" stroke="rgb(0, 0, 0)" stroke-linecap="square" stroke-width="2.0"/>
   <text fill="rgb(0, 0, 0)" font-family="Monospaced" font-size="12" x="123.0" y="21.0">x1</text>
   <text fill="rgb(0, 0, 0)" font-family="Monospaced" font-size="16" font-weight="bold" x="159.0" y="23.0">s3</text>
   <ellipse cx="117.0" cy="15.0" fill="rgb(0, 0, 0)" rx="2.0" ry="2.0" stroke="none" stroke-width="2.0"/>
   <polyline fill="none" points="62,105 67,105 77,105" stroke="rgb(0, 0, 0)" stroke-linecap="square" stroke-width="3.0"/>
   <polygon fill="none" points="52,114 62,105 52,96 28,96 28,114" stroke="rgb(0, 0, 0)" stroke-linecap="square" stroke-width="2.0"/>
   <text fill="rgb(0, 0, 0)" font-family="Monospaced" font-size="12" x="33.0" y="111.0">x1</text>
   <text fill="rgb(0, 0, 0)" font-family="Monospaced" font-size="16" font-weight="bold" x="5.0" y="113.0">e0</text>
   <ellipse cx="67.0" cy="105.0" fill="rgb(0, 0, 0)" rx="2.0" ry="2.0" stroke="none" stroke-width="2.0"/>
   <polyline fill="none" points="62,75 67,75 77,75" stroke="rgb(0, 0, 0)" stroke-linecap="square" stroke-width="3.0"/>
   <polygon fill="none" points="52,84 62,75 52,66 28,66 28,84" stroke="rgb(0, 0, 0)" stroke-linecap="square" stroke-width="2.0"/>
   <text fill="rgb(0, 0, 0)" font-family="Monospaced" font-size="12" x="33.0" y="81.0">x1</text>
   <text fill="rgb(0, 0, 0)" font-family="Monospaced" font-size="16" font-weight="bold" x="5.0" y="83.0">e1</text>
   <ellipse cx="67.0" cy="75.0" fill="rgb(0, 0, 0)" rx="2.0" ry="2.0" stroke="none" stroke-width="2.0"/>
   <polyline fill="none" points="62,45 67,45 77,45" stroke="rgb(0, 0, 0)" stroke-linecap="square" stroke-width="3.0"/>
   <polygon fill="none" points="52,54 62,45 52,36 28,36 28,54" stroke="rgb(0, 0, 0)" stroke-linecap="square" stroke-width="2.0"/>
   <text fill="rgb(0, 0, 0)" font-family="Monospaced" font-size="12" x="33.0" y="51.0">x1</text>
   <text fill="rgb(0, 0, 0)" font-family="Monospaced" font-size="16" font-weight="bold" x="5.0" y="53.0">e2</text>
   <ellipse cx="67.0" cy="45.0" fill="rgb(0, 0, 0)" rx="2.0" ry="2.0" stroke="none" stroke-width="2.0"/>
   <polyline fill="none" points="121,45 118,45" stroke="rgb(0, 0, 0)" stroke-linecap="square" stroke-width="3.0"/>
   <polygon fill="none" points="147,36 157,45 147,54 123,54 123,36" stroke="rgb(0, 0, 0)" stroke-linecap="square" stroke-width="2.0"/>
   <text fill="rgb(0, 0, 0)" font-family="Monospaced" font-size="12" x="123.0" y="51.0">x1</text>
   <text fill="rgb(0, 0, 0)" font-family="Monospaced" font-size="16" font-weight="bold" x="159.0" y="53.0">s2</text>
   <ellipse cx="117.0" cy="45.0" fill="rgb(0, 0, 0)" rx="2.0" ry="2.0" stroke="none" stroke-width="2.0"/>
   <polygon fill="none" points="97,15 78,8 78,22" stroke="rgb(0, 0, 0)" stroke-linecap="square" stroke-width="2.0"/>
   <ellipse cx="102.0" cy="15.0" fill="none" rx="4.5" ry="4.5" stroke="rgb(0, 0, 0)" stroke-width="2.0"/>
   <ellipse cx="107.0" cy="15.0" fill="rgb(0, 0, 0)" rx="2.0" ry="2.0" stroke="none" stroke-width="2.0"/>
   <ellipse cx="77.0" cy="15.0" fill="rgb(0, 0, 0)" rx="2.0" ry="2.0" stroke="none" stroke-width="2.0"/>
   <polygon fill="none" points="97,75 78,68 78,82" stroke="rgb(0, 0, 0)" stroke-linecap="square" stroke-width="2.0"/>
   <ellipse cx="102.0" cy="75.0" fill="none" rx="4.5" ry="4.5" stroke="rgb(0, 0, 0)" stroke-width="2.0"/>
   <ellipse cx="107.0" cy="75.0" fill="rgb(0, 0, 0)" rx="2.0" ry="2.0" stroke="none" stroke-width="2.0"/>
   <ellipse cx="77.0" cy="75.0" fill="rgb(0, 0, 0)" rx="2.0" ry="2.0" stroke="none" stroke-width="2.0"/>
</svg>
