<?xml version="1.0" encoding="UTF-8" standalone="no"?>
<svg xmlns="http://www.w3.org/2000/svg" version="1.1" viewBox="0 0 464 505">
   <polyline fill="none" points="317,185 337,185" stroke="rgb(0, 0, 0)" stroke-linecap="square" stroke-width="3.0"/>
   <polyline fill="none" points="317,365 337,365" stroke="rgb(0, 0, 0)" stroke-linecap="square" stroke-width="3.0"/>
   <polyline fill="none" points="387,205 397,205" stroke="rgb(0, 0, 0)" stroke-linecap="square" stroke-width="3.0"/>
   <polyline fill="none" points="387,385 397,385" stroke="rgb(0, 0, 0)" stroke-linecap="square" stroke-width="3.0"/>
   <polyline fill="none" points="197,165 267,165" stroke="rgb(0, 0, 0)" stroke-linecap="square" stroke-width="3.0"/>
   <polyline fill="none" points="147,55 147,65" stroke="rgb(0, 0, 0)" stroke-linecap="square" stroke-width="3.0"/>
   <polyline fill="none" points="127,135 217,135 217,205 267,205" stroke="rgb(0, 0, 0)" stroke-linecap="square" stroke-width="3.0"/>
   <polyline fill="none" points="217,495 217,385 267,385" stroke="rgb(0, 0, 0)" stroke-linecap="square" stroke-width="3.0"/>
   <polyline fill="none" points="217,55 217,135" stroke="rgb(0, 0, 0)" stroke-linecap="square" stroke-width="3.0"/>
   <polyline fill="none" points="77,65 77,85 97,85" stroke="rgb(0, 0, 0)" stroke-linecap="square" stroke-width="3.0"/>
   <polyline fill="none" points="147,345 147,435 267,435" stroke="rgb(0, 0, 0)" stroke-linecap="square" stroke-width="3.0"/>
   <polyline fill="none" points="337,315 247,315 247,405 247,495 337,495" stroke="rgb(0, 0, 0)" stroke-linecap="square" stroke-width="3.0"/>
   <polyline fill="none" points="167,495 167,475 267,475" stroke="rgb(0, 0, 0)" stroke-linecap="square" stroke-width="3.0"/>
   <polyline fill="none" points="247,225 337,225" stroke="rgb(0, 0, 0)" stroke-linecap="square" stroke-width="3.0"/>
   <polyline fill="none" points="247,405 337,405" stroke="rgb(0, 0, 0)" stroke-linecap="square" stroke-width="3.0"/>
   <polyline fill="none" points="317,275 337,275" stroke="rgb(0, 0, 0)" stroke-linecap="square" stroke-width="3.0"/>
   <polyline fill="none" points="317,455 337,455" stroke="rgb(0, 0, 0)" stroke-linecap="square" stroke-width="3.0"/>
   <polyline fill="none" points="387,295 397,295" stroke="rgb(0, 0, 0)" stroke-linecap="square" stroke-width="3.0"/>
   <polyline fill="none" points="387,475 397,475" stroke="rgb(0, 0, 0)" stroke-linecap="square" stroke-width="3.0"/>
   <polyline fill="none" points="197,55 197,85 197,165 197,255 197,495" stroke="rgb(0, 0, 0)" stroke-linecap="square" stroke-width="3.0"/>
   <polyline fill="none" points="97,135 77,135 77,115 167,115 167,295 267,295" stroke="rgb(0, 0, 0)" stroke-linecap="square" stroke-width="3.0"/>
   <polyline fill="none" points="167,295 167,475" stroke="rgb(0, 0, 0)" stroke-linecap="square" stroke-width="3.0"/>
   <polyline fill="none" points="217,205 217,385" stroke="rgb(0, 0, 0)" stroke-linecap="square" stroke-width="3.0"/>
   <polyline fill="none" points="127,85 197,85" stroke="rgb(0, 0, 0)" stroke-linecap="square" stroke-width="3.0"/>
   <polyline fill="none" points="197,255 267,255" stroke="rgb(0, 0, 0)" stroke-linecap="square" stroke-width="3.0"/>
   <polyline fill="none" points="167,55 167,115" stroke="rgb(0, 0, 0)" stroke-linecap="square" stroke-width="3.0"/>
   <polyline fill="none" points="147,435 147,495" stroke="rgb(0, 0, 0)" stroke-linecap="square" stroke-width="3.0"/>
   <ellipse cx="167.0" cy="295.0" fill="rgb(0, 0, 0)" rx="5.0" ry="5.0" stroke="none" stroke-width="3.0"/>
   <ellipse cx="247.0" cy="405.0" fill="rgb(0, 0, 0)" rx="5.0" ry="5.0" stroke="none" stroke-width="3.0"/>
   <ellipse cx="197.0" cy="165.0" fill="rgb(0, 0, 0)" rx="5.0" ry="5.0" stroke="none" stroke-width="3.0"/>
   <ellipse cx="147.0" cy="435.0" fill="rgb(0, 0, 0)" rx="5.0" ry="5.0" stroke="none" stroke-width="3.0"/>
   <ellipse cx="147.0" cy="65.0" fill="rgb(0, 0, 0)" rx="5.0" ry="5.0" stroke="none" stroke-width="3.0"/>
   <ellipse cx="77.0" cy="65.0" fill="rgb(0, 0, 0)" rx="5.0" ry="5.0" stroke="none" stroke-width="3.0"/>
   <ellipse cx="217.0" cy="205.0" fill="rgb(0, 0, 0)" rx="5.0" ry="5.0" stroke="none" stroke-width="3.0"/>
   <ellipse cx="167.0" cy="475.0" fill="rgb(0, 0, 0)" rx="5.0" ry="5.0" stroke="none" stroke-width="3.0"/>
   <ellipse cx="247.0" cy="315.0" fill="rgb(0, 0, 0)" rx="5.0" ry="5.0" stroke="none" stroke-width="3.0"/>
   <ellipse cx="147.0" cy="345.0" fill="rgb(0, 0, 0)" rx="5.0" ry="5.0" stroke="none" stroke-width="3.0"/>
   <ellipse cx="167.0" cy="115.0" fill="rgb(0, 0, 0)" rx="5.0" ry="5.0" stroke="none" stroke-width="3.0"/>
   <ellipse cx="197.0" cy="85.0" fill="rgb(0, 0, 0)" rx="5.0" ry="5.0" stroke="none" stroke-width="3.0"/>
   <ellipse cx="77.0" cy="115.0" fill="rgb(0, 0, 0)" rx="5.0" ry="5.0" stroke="none" stroke-width="3.0"/>
   <ellipse cx="217.0" cy="385.0" fill="rgb(0, 0, 0)" rx="5.0" ry="5.0" stroke="none" stroke-width="3.0"/>
   <ellipse cx="247.0" cy="225.0" fill="rgb(0, 0, 0)" rx="5.0" ry="5.0" stroke="none" stroke-width="3.0"/>
   <ellipse cx="217.0" cy="135.0" fill="rgb(0, 0, 0)" rx="5.0" ry="5.0" stroke="none" stroke-width="3.0"/>
   <ellipse cx="197.0" cy="255.0" fill="rgb(0, 0, 0)" rx="5.0" ry="5.0" stroke="none" stroke-width="3.0"/>
   <polyline fill="none" points="62,65 67,65 77,65 147,65 147,345 267,345" stroke="rgb(0, 0, 0)" stroke-linecap="square" stroke-width="3.0"/>
   <polygon fill="none" points="52,74 62,65 52,56 28,56 28,74" stroke="rgb(0, 0, 0)" stroke-linecap="square" stroke-width="2.0"/>
   <text fill="rgb(0, 0, 0)" font-family="Monospaced" font-size="12" x="33.0" y="71.0">x1</text>
   <text fill="rgb(0, 0, 0)" font-family="Monospaced" font-size="16" font-weight="bold" x="5.0" y="73.0">c1</text>
   <ellipse cx="67.0" cy="65.0" fill="rgb(0, 0, 0)" rx="2.0" ry="2.0" stroke="none" stroke-width="2.0"/>
   <path d="M362.0,500.0 A25.0,25.0 90.0 0,0 362.0,450.0" fill="none" stroke="rgb(0, 0, 0)" stroke-width="2.0"/>
   <polyline fill="none" points="362,450 338,450 338,500 362,500" stroke="rgb(0, 0, 0)" stroke-linecap="square" stroke-width="2.0"/>
   <polyline fill="none" points="401,205 398,205" stroke="rgb(0, 0, 0)" stroke-linecap="square" stroke-width="3.0"/>
   <polygon fill="none" points="427,196 437,205 427,214 403,214 403,196" stroke="rgb(0, 0, 0)" stroke-linecap="square" stroke-width="2.0"/>
   <text fill="rgb(0, 0, 0)" font-family="Monospaced" font-size="12" x="403.0" y="211.0">x1</text>
   <text fill="rgb(0, 0, 0)" font-family="Monospaced" font-size="16" font-weight="bold" x="439.0" y="213.0">s0</text>
   <ellipse cx="397.0" cy="205.0" fill="rgb(0, 0, 0)" rx="2.0" ry="2.0" stroke="none" stroke-width="2.0"/>
   <path d="M292.0,300.0 A25.0,25.0 90.0 0,0 292.0,250.0" fill="none" stroke="rgb(0, 0, 0)" stroke-width="2.0"/>
   <polyline fill="none" points="292,250 268,250 268,300 292,300" stroke="rgb(0, 0, 0)" stroke-linecap="square" stroke-width="2.0"/>
   <polyline fill="none" points="401,475 398,475" stroke="rgb(0, 0, 0)" stroke-linecap="square" stroke-width="3.0"/>
   <polygon fill="none" points="427,466 437,475 427,484 403,484 403,466" stroke="rgb(0, 0, 0)" stroke-linecap="square" stroke-width="2.0"/>
   <text fill="rgb(0, 0, 0)" font-family="Monospaced" font-size="12" x="403.0" y="481.0">x1</text>
   <text fill="rgb(0, 0, 0)" font-family="Monospaced" font-size="16" font-weight="bold" x="439.0" y="483.0">s3</text>
   <ellipse cx="397.0" cy="475.0" fill="rgb(0, 0, 0)" rx="2.0" ry="2.0" stroke="none" stroke-width="2.0"/>
   <polygon fill="none" points="117,85 98,78 98,92" stroke="rgb(0, 0, 0)" stroke-linecap="square" stroke-width="2.0"/>
   <ellipse cx="122.0" cy="85.0" fill="none" rx="4.5" ry="4.5" stroke="rgb(0, 0, 0)" stroke-width="2.0"/>
   <ellipse cx="127.0" cy="85.0" fill="rgb(0, 0, 0)" rx="2.0" ry="2.0" stroke="none" stroke-width="2.0"/>
   <ellipse cx="97.0" cy="85.0" fill="rgb(0, 0, 0)" rx="2.0" ry="2.0" stroke="none" stroke-width="2.0"/>
   <path d="M292.0,210.0 A25.0,25.0 90.0 0,0 292.0,160.0" fill="none" stroke="rgb(0, 0, 0)" stroke-width="2.0"/>
   <polyline fill="none" points="292,160 268,160 268,210 292,210" stroke="rgb(0, 0, 0)" stroke-linecap="square" stroke-width="2.0"/>
   <path d="M362.0,230.0 A25.0,25.0 90.0 0,0 362.0,180.0" fill="none" stroke="rgb(0, 0, 0)" stroke-width="2.0"/>
   <polyline fill="none" points="362,180 338,180 338,230 362,230" stroke="rgb(0, 0, 0)" stroke-linecap="square" stroke-width="2.0"/>
   <polyline fill="none" points="401,385 398,385" stroke="rgb(0, 0, 0)" stroke-linecap="square" stroke-width="3.0"/>
   <polygon fill="none" points="427,376 437,385 427,394 403,394 403,376" stroke="rgb(0, 0, 0)" stroke-linecap="square" stroke-width="2.0"/>
   <text fill="rgb(0, 0, 0)" font-family="Monospaced" font-size="12" x="403.0" y="391.0">x1</text>
   <text fill="rgb(0, 0, 0)" font-family="Monospaced" font-size="16" font-weight="bold" x="439.0" y="393.0">s2</text>
   <ellipse cx="397.0" cy="385.0" fill="rgb(0, 0, 0)" rx="2.0" ry="2.0" stroke="none" stroke-width="2.0"/>
   <polygon fill="none" points="117,135 98,128 98,142" stroke="rgb(0, 0, 0)" stroke-linecap="square" stroke-width="2.0"/>
   <ellipse cx="122.0" cy="135.0" fill="none" rx="4.5" ry="4.5" stroke="rgb(0, 0, 0)" stroke-width="2.0"/>
   <ellipse cx="127.0" cy="135.0" fill="rgb(0, 0, 0)" rx="2.0" ry="2.0" stroke="none" stroke-width="2.0"/>
   <ellipse cx="97.0" cy="135.0" fill="rgb(0, 0, 0)" rx="2.0" ry="2.0" stroke="none" stroke-width="2.0"/>
   <path d="M362.0,410.0 A25.0,25.0 90.0 0,0 362.0,360.0" fill="none" stroke="rgb(0, 0, 0)" stroke-width="2.0"/>
   <polyline fill="none" points="362,360 338,360 338,410 362,410" stroke="rgb(0, 0, 0)" stroke-linecap="square" stroke-width="2.0"/>
   <path d="M292.0,480.0 A25.0,25.0 90.0 0,0 292.0,430.0" fill="none" stroke="rgb(0, 0, 0)" stroke-width="2.0"/>
   <polyline fill="none" points="292,430 268,430 268,480 292,480" stroke="rgb(0, 0, 0)" stroke-linecap="square" stroke-width="2.0"/>
   <polyline fill="none" points="62,15 67,15 247,15 247,225 247,315" stroke="rgb(0, 0, 0)" stroke-linecap="square" stroke-width="3.0"/>
   <polygon fill="none" points="52,24 62,15 52,6 28,6 28,24" stroke="rgb(0, 0, 0)" stroke-linecap="square" stroke-width="2.0"/>
   <text fill="rgb(0, 0, 0)" font-family="Monospaced" font-size="12" x="33.0" y="21.0">x1</text>
   <text fill="rgb(0, 0, 0)" font-family="Monospaced" font-size="16" font-weight="bold" x="5.0" y="23.0">e0</text>
   <ellipse cx="67.0" cy="15.0" fill="rgb(0, 0, 0)" rx="2.0" ry="2.0" stroke="none" stroke-width="2.0"/>
   <path d="M362.0,320.0 A25.0,25.0 90.0 0,0 362.0,270.0" fill="none" stroke="rgb(0, 0, 0)" stroke-width="2.0"/>
   <polyline fill="none" points="362,270 338,270 338,320 362,320" stroke="rgb(0, 0, 0)" stroke-linecap="square" stroke-width="2.0"/>
   <polyline fill="none" points="62,115 67,115 77,115" stroke="rgb(0, 0, 0)" stroke-linecap="square" stroke-width="3.0"/>
   <polygon fill="none" points="52,124 62,115 52,106 28,106 28,124" stroke="rgb(0, 0, 0)" stroke-linecap="square" stroke-width="2.0"/>
   <text fill="rgb(0, 0, 0)" font-family="Monospaced" font-size="12" x="33.0" y="121.0">x1</text>
   <text fill="rgb(0, 0, 0)" font-family="Monospaced" font-size="16" font-weight="bold" x="5.0" y="123.0">c0</text>
   <ellipse cx="67.0" cy="115.0" fill="rgb(0, 0, 0)" rx="2.0" ry="2.0" stroke="none" stroke-width="2.0"/>
   <polyline fill="none" points="401,295 398,295" stroke="rgb(0, 0, 0)" stroke-linecap="square" stroke-width="3.0"/>
   <polygon fill="none" points="427,286 437,295 427,304 403,304 403,286" stroke="rgb(0, 0, 0)" stroke-linecap="square" stroke-width="2.0"/>
   <text fill="rgb(0, 0, 0)" font-family="Monospaced" font-size="12" x="403.0" y="301.0">x1</text>
   <text fill="rgb(0, 0, 0)" font-family="Monospaced" font-size="16" font-weight="bold" x="439.0" y="303.0">s1</text>
   <ellipse cx="397.0" cy="295.0" fill="rgb(0, 0, 0)" rx="2.0" ry="2.0" stroke="none" stroke-width="2.0"/>
   <path d="M292.0,390.0 A25.0,25.0 90.0 0,0 292.0,340.0" fill="none" stroke="rgb(0, 0, 0)" stroke-width="2.0"/>
   <polyline fill="none" points="292,340 268,340 268,390 292,390" stroke="rgb(0, 0, 0)" stroke-linecap="square" stroke-width="2.0"/>
</svg>
